<svg xmlns="http://www.w3.org/2000/svg" width="4096" height="4096" viewBox="0 0 4096 4096" role="img" aria-label="Synergy Testnet genesis full sigil">
<metadata>{&quot;art_seed&quot;:&quot;e5b9fcdcfbaf9aaba759afee722b7bae9da187a61f7dcbb1ae122cccc0f2707c&quot;,&quot;chain_id&quot;:1264,&quot;dag_topology_seed&quot;:&quot;22a0e56bc1c8dbbea6de4c22a6837566e292100f1c7558f8ec743e12d0248f89&quot;,&quot;generator_version&quot;:&quot;synergy-genesis-art-v2.0.0&quot;,&quot;genesis_hash&quot;:&quot;85b26d520e1621adaa212012dae540dcb223e0a9648666b919d64cb8c4394c75&quot;,&quot;kind&quot;:&quot;full sigil&quot;,&quot;network_magic_bytes&quot;:&quot;e312fa40&quot;,&quot;state_root&quot;:&quot;989d45295a07a0fd848235342505be89c74980fbc630b9b6fa108926bedb92c3&quot;,&quot;validator_set_hash&quot;:&quot;8b2cb9f8eb296dd1491d3ed777da3f7264dd4d0bc467556902ebe63363577dfc&quot;}</metadata>
<defs>
<style><![CDATA[text{font-family:Sora,Rajdhani,Segoe UI,Arial,sans-serif} .mono{font-family:SFMono-Regular,Consolas,Menlo,monospace}]]></style>
<radialGradient id="bg-radial" cx="50%" cy="45%" r="72%"><stop offset="0%" stop-color="#111622"/><stop offset="50%" stop-color="#05070d"/><stop offset="100%" stop-color="#030206"/></radialGradient>
<linearGradient id="energy-gradient" x1="8%" y1="12%" x2="92%" y2="88%"><stop offset="0%" stop-color="#00ff66"/><stop offset="32%" stop-color="#00ced1"/><stop offset="66%" stop-color="#0060ff"/><stop offset="100%" stop-color="#7d00ff"/></linearGradient>
<linearGradient id="core-gradient" x1="25%" y1="10%" x2="80%" y2="90%"><stop offset="0%" stop-color="#ffffff"/><stop offset="38%" stop-color="#00ffd4"/><stop offset="72%" stop-color="#00ced1"/><stop offset="100%" stop-color="#7d00ff"/></linearGradient>
<linearGradient id="gold-magenta" x1="0%" y1="0%" x2="100%" y2="100%"><stop offset="0%" stop-color="#ffd700"/><stop offset="100%" stop-color="#ff00e5"/></linearGradient>
<filter id="core-glow" x="-35%" y="-35%" width="170%" height="170%"><feGaussianBlur stdDeviation="16" result="blur"/><feColorMatrix in="blur" type="matrix" values="0 0 0 0 0 0 0 0 0 1 0 0 0 0 0.83 0 0 0 .42 0"/><feMerge><feMergeNode/><feMergeNode in="SourceGraphic"/></feMerge></filter>
<filter id="line-glow" x="-20%" y="-20%" width="140%" height="140%"><feGaussianBlur stdDeviation="5" result="blur"/><feMerge><feMergeNode in="blur"/><feMergeNode in="SourceGraphic"/></feMerge></filter>
</defs>
<rect width="100%" height="100%" fill="url(#bg-radial)"/>
<g opacity="0.18" stroke="#111622" stroke-width="1">
<line x1="192" y1="0" x2="192" y2="4096"/>
<line x1="384" y1="0" x2="384" y2="4096"/>
<line x1="576" y1="0" x2="576" y2="4096"/>
<line x1="768" y1="0" x2="768" y2="4096"/>
<line x1="960" y1="0" x2="960" y2="4096"/>
<line x1="1152" y1="0" x2="1152" y2="4096"/>
<line x1="1344" y1="0" x2="1344" y2="4096"/>
<line x1="1536" y1="0" x2="1536" y2="4096"/>
<line x1="1728" y1="0" x2="1728" y2="4096"/>
<line x1="1920" y1="0" x2="1920" y2="4096"/>
<line x1="2112" y1="0" x2="2112" y2="4096"/>
<line x1="2304" y1="0" x2="2304" y2="4096"/>
<line x1="2496" y1="0" x2="2496" y2="4096"/>
<line x1="2688" y1="0" x2="2688" y2="4096"/>
<line x1="2880" y1="0" x2="2880" y2="4096"/>
<line x1="3072" y1="0" x2="3072" y2="4096"/>
<line x1="3264" y1="0" x2="3264" y2="4096"/>
<line x1="3456" y1="0" x2="3456" y2="4096"/>
<line x1="3648" y1="0" x2="3648" y2="4096"/>
<line x1="3840" y1="0" x2="3840" y2="4096"/>
<line x1="4032" y1="0" x2="4032" y2="4096"/>
<line x1="0" y1="192" x2="4096" y2="192"/>
<line x1="0" y1="384" x2="4096" y2="384"/>
<line x1="0" y1="576" x2="4096" y2="576"/>
<line x1="0" y1="768" x2="4096" y2="768"/>
<line x1="0" y1="960" x2="4096" y2="960"/>
<line x1="0" y1="1152" x2="4096" y2="1152"/>
<line x1="0" y1="1344" x2="4096" y2="1344"/>
<line x1="0" y1="1536" x2="4096" y2="1536"/>
<line x1="0" y1="1728" x2="4096" y2="1728"/>
<line x1="0" y1="1920" x2="4096" y2="1920"/>
<line x1="0" y1="2112" x2="4096" y2="2112"/>
<line x1="0" y1="2304" x2="4096" y2="2304"/>
<line x1="0" y1="2496" x2="4096" y2="2496"/>
<line x1="0" y1="2688" x2="4096" y2="2688"/>
<line x1="0" y1="2880" x2="4096" y2="2880"/>
<line x1="0" y1="3072" x2="4096" y2="3072"/>
<line x1="0" y1="3264" x2="4096" y2="3264"/>
<line x1="0" y1="3456" x2="4096" y2="3456"/>
<line x1="0" y1="3648" x2="4096" y2="3648"/>
<line x1="0" y1="3840" x2="4096" y2="3840"/>
<line x1="0" y1="4032" x2="4096" y2="4032"/>
</g>
<g id="synergy-genesis-motif">
<g opacity="0.38" fill="none">
<circle cx="2048" cy="2048" r="430" stroke="#00ff66" stroke-width="7" stroke-dasharray="2 24" transform="rotate(154 2048 2048)"/>
<circle cx="2048" cy="2048" r="690" stroke="#00ced1" stroke-width="7" stroke-dasharray="18 30" transform="rotate(171 2048 2048)"/>
<circle cx="2048" cy="2048" r="940" stroke="#0060ff" stroke-width="7" stroke-dasharray="2 24" transform="rotate(188 2048 2048)"/>
<circle cx="2048" cy="2048" r="1390" stroke="#7d00ff" stroke-width="7" stroke-dasharray="18 30" transform="rotate(205 2048 2048)"/>
</g>
<g opacity="0.38" stroke="#ffd700" stroke-width="5" stroke-linecap="round">
<line x1="699.809" y1="2705.557" x2="627.905" y2="2740.626"/>
<line x1="559.349" y1="2232.172" x2="529.576" y2="2235.855"/>
<line x1="549.339" y1="1984.636" x2="519.366" y2="1983.369"/>
<line x1="651.115" y1="1501.455" x2="576.614" y2="1472.306"/>
<line x1="760.125" y1="1278.989" x2="734.367" y2="1263.609"/>
<line x1="1079.603" y1="902.484" x2="1060.235" y2="879.574"/>
<line x1="1281.356" y1="758.714" x2="1266.024" y2="732.929"/>
<line x1="1741.526" y1="579.643" x2="1735.396" y2="550.275"/>
<line x1="1987.389" y1="549.225" x2="1986.177" y2="519.25"/>
<line x1="2477.325" y1="610.753" x2="2485.911" y2="582.008"/>
<line x1="2708.032" y1="701.019" x2="2743.234" y2="629.18"/>
<line x1="3109.634" y1="988.315" x2="3130.867" y2="967.121"/>
<line x1="3269.573" y1="1177.507" x2="3294.005" y2="1160.097"/>
<line x1="3486.034" y1="1621.316" x2="3562.729" y2="1598.56"/>
<line x1="3536.651" y1="1863.828" x2="3566.424" y2="1860.145"/>
<line x1="3515.792" y1="2357.171" x2="3545.148" y2="2363.355"/>
<line x1="3444.885" y1="2594.545" x2="3472.823" y2="2605.476"/>
<line x1="3191.735" y1="3018.5" x2="3214.61" y2="3037.91"/>
<line x1="3016.397" y1="3193.516" x2="3035.765" y2="3216.426"/>
<line x1="2591.978" y1="3445.887" x2="2602.858" y2="3473.845"/>
<line x1="2354.474" y1="3516.357" x2="2370.82" y2="3594.67"/>
<line x1="1861.094" y1="3536.31" x2="1857.356" y2="3566.076"/>
<line x1="1618.675" y1="3485.247" x2="1610.089" y2="3513.992"/>
<line x1="1175.264" y1="3267.972" x2="1128.718" y2="3333.037"/>
<line x1="986.366" y1="3107.685" x2="965.133" y2="3128.879"/>
</g>
<path d="M 905.781 1676.871 L 2048 847 L 3190.219 1676.871 L 2753.93 3019.629 L 1342.07 3019.629 Z" fill="#05070d" opacity="0.16" stroke="#00ced1" stroke-width="2"/>
<g stroke-linecap="round" stroke-linejoin="round" fill="none" opacity="1">
<path d="M 905.781 1676.871 L 2048 847" stroke="#00ff66" stroke-width="54" fill="none"/>
<path d="M 905.781 1676.871 L 2048 847" stroke="#00ffd4" stroke-width="10" fill="none" opacity="0.5"/>
<path d="M 2048 847 L 3190.219 1676.871" stroke="#00ced1" stroke-width="54" fill="none"/>
<path d="M 2048 847 L 3190.219 1676.871" stroke="#00ffd4" stroke-width="10" fill="none" opacity="0.5"/>
<path d="M 3190.219 1676.871 L 2753.93 3019.629" stroke="#0060ff" stroke-width="54" fill="none"/>
<path d="M 3190.219 1676.871 L 2753.93 3019.629" stroke="#00ffd4" stroke-width="10" fill="none" opacity="0.5"/>
<path d="M 2753.93 3019.629 L 1342.07 3019.629" stroke="#7d00ff" stroke-width="54" fill="none"/>
<path d="M 2753.93 3019.629 L 1342.07 3019.629" stroke="#00ffd4" stroke-width="10" fill="none" opacity="0.5"/>
<path d="M 1342.07 3019.629 L 905.781 1676.871" stroke="#00ff66" stroke-width="54" fill="none"/>
<path d="M 1342.07 3019.629 L 905.781 1676.871" stroke="#00ffd4" stroke-width="10" fill="none" opacity="0.5"/>
</g>
<g stroke-linecap="round" fill="none" opacity="0.24">
<path d="M 905.781 1676.871 Q 2048 1817.9 3190.219 1676.871" stroke="#00ced1" stroke-width="8"/>
<path d="M 2048 847 Q 1829.162 1976.895 1342.07 3019.629" stroke="#00ced1" stroke-width="8"/>
<path d="M 905.781 1676.871 Q 1912.75 2234.155 2753.93 3019.629" stroke="#00ced1" stroke-width="8"/>
</g>
<g opacity="0.22" stroke="#7d00ff" stroke-width="3" fill="none">
<line x1="1799.536" y1="2105.363" x2="1593.198" y2="1795.899"/>
<line x1="1848.237" y1="1889.508" x2="1961.536" y2="1535.239"/>
<line x1="2047.364" y1="1793.001" x2="2394.983" y2="1660.698"/>
<line x1="2246.97" y1="1888.514" x2="2567.145" y2="2077.804"/>
<line x1="2296.747" y1="2104.123" x2="2348.38" y2="2472.466"/>
<line x1="2159.213" y1="2277.47" x2="1903.423" y2="2547.497"/>
<line x1="1937.933" y1="2278.022" x2="1567.335" y2="2246.396"/>
</g>
<g id="genesis-core" filter="url(#core-glow)">
<polygon points="2117.735,2350.055 1782.278,2207.662 1814.04,1844.622 2169.127,1762.643 2356.82,2075.018" fill="#0a0e18" stroke="url(#energy-gradient)" stroke-width="13" opacity="0.94"/>
<polygon points="1835.7,1983.093 1998.061,1831.69 2210.361,1896.596 2260.3,2112.907 2097.939,2264.31 1885.639,2199.404" fill="none" stroke="#00ffd4" stroke-width="8" opacity="0.82"/>
<polygon points="2007.509,1872.613 2220.135,2100.627 1916.356,2170.76" fill="#00ffd4" opacity="0.18" stroke="#ffffff" stroke-width="3"/>
<polygon points="2088.491,2223.387 1875.865,1995.373 2179.644,1925.24" fill="#7d00ff" opacity="0.2" stroke="#00ced1" stroke-width="3"/>
<polygon points="1947.93,1985.47 2110.53,1947.93 2148.07,2110.53 1985.47,2148.07" fill="url(#core-gradient)" stroke="#ffffff" stroke-width="4"/>
<circle cx="2048" cy="2048" r="28" fill="#ffffff"/>
</g>
<g id="genesis-validators">
<g id="validator-1-node">
<circle cx="905.781" cy="1676.871" r="122" fill="#030206" stroke="#00ff66" stroke-width="8" opacity="0.98"/>
<circle cx="905.781" cy="1676.871" r="98" fill="#111622" stroke="url(#energy-gradient)" stroke-width="5"/>
<polygon points="861.382,1644.613 922.74,1624.677 960.661,1676.871 922.74,1729.065 861.382,1709.128" fill="#00ff66" opacity="0.34"/>
<circle cx="905.781" cy="1676.871" r="17.64" fill="#ffd700"/>
</g>
<g id="validator-2-node">
<circle cx="2048" cy="847" r="122" fill="#030206" stroke="#00ced1" stroke-width="8" opacity="0.98"/>
<circle cx="2048" cy="847" r="98" fill="#111622" stroke="url(#energy-gradient)" stroke-width="5"/>
<polygon points="2064.959,794.806 2102.88,847 2064.959,899.194 2003.601,879.258 2003.601,814.742" fill="#00ced1" opacity="0.34"/>
<circle cx="2048" cy="847" r="17.64" fill="#ffd700"/>
</g>
<g id="validator-3-node">
<circle cx="3190.219" cy="1676.871" r="122" fill="#030206" stroke="#0060ff" stroke-width="8" opacity="0.98"/>
<circle cx="3190.219" cy="1676.871" r="98" fill="#111622" stroke="url(#energy-gradient)" stroke-width="5"/>
<polygon points="3245.099,1676.871 3207.178,1729.065 3145.82,1709.128 3145.82,1644.613 3207.178,1624.677" fill="#0060ff" opacity="0.34"/>
<circle cx="3190.219" cy="1676.871" r="17.64" fill="#ffd700"/>
</g>
<g id="validator-4-node">
<circle cx="2753.93" cy="3019.629" r="122" fill="#030206" stroke="#7d00ff" stroke-width="8" opacity="0.98"/>
<circle cx="2753.93" cy="3019.629" r="98" fill="#111622" stroke="url(#energy-gradient)" stroke-width="5"/>
<polygon points="2770.889,3071.823 2709.531,3051.887 2709.531,2987.372 2770.889,2967.435 2808.81,3019.629" fill="#7d00ff" opacity="0.34"/>
<circle cx="2753.93" cy="3019.629" r="17.64" fill="#ffd700"/>
</g>
<g id="validator-5-node">
<circle cx="1342.07" cy="3019.629" r="122" fill="#030206" stroke="#00ffd4" stroke-width="8" opacity="0.98"/>
<circle cx="1342.07" cy="3019.629" r="98" fill="#111622" stroke="url(#energy-gradient)" stroke-width="5"/>
<polygon points="1297.671,3051.887 1297.671,2987.372 1359.029,2967.435 1396.95,3019.629 1359.029,3071.823" fill="#00ffd4" opacity="0.34"/>
<circle cx="1342.07" cy="3019.629" r="17.64" fill="#ffd700"/>
</g>
</g>
</g>
<text x="2048" y="440" text-anchor="middle" font-size="132" font-weight="800" letter-spacing="0" fill="#ffffff" opacity="1">SYNERGY TESTNET</text>
<text x="2048" y="570" text-anchor="middle" font-size="56" font-weight="650" letter-spacing="0" fill="#c5d9e8" opacity="1">CHAIN 1264   /   MAGIC e312fa40   /   POST-QUANTUM DAG CONSENSUS</text>
<text class="mono" x="2048" y="3620" text-anchor="middle" font-size="70" font-weight="700" letter-spacing="0" fill="#f2f7ff" opacity="1">GENESIS HASH 85b26d52...c4394c75</text>
<text class="mono" x="2048" y="3820" text-anchor="middle" font-size="34" font-weight="400" letter-spacing="0" fill="#5e7280" opacity="0.7">FULL GENESIS HASH 85b26d520e1621adaa212012dae540dcb223e0a9648666b919d64cb8c4394c75</text>
</svg>
