<svg xmlns="http://www.w3.org/2000/svg" width="3300" height="2550" viewBox="0 0 3300 2550" role="img" aria-label="Synergy Testnet genesis certificate">
<metadata>{&quot;art_seed&quot;:&quot;e5b9fcdcfbaf9aaba759afee722b7bae9da187a61f7dcbb1ae122cccc0f2707c&quot;,&quot;chain_id&quot;:1264,&quot;dag_topology_seed&quot;:&quot;22a0e56bc1c8dbbea6de4c22a6837566e292100f1c7558f8ec743e12d0248f89&quot;,&quot;generator_version&quot;:&quot;synergy-genesis-art-v2.0.0&quot;,&quot;genesis_hash&quot;:&quot;85b26d520e1621adaa212012dae540dcb223e0a9648666b919d64cb8c4394c75&quot;,&quot;kind&quot;:&quot;certificate&quot;,&quot;network_magic_bytes&quot;:&quot;e312fa40&quot;,&quot;state_root&quot;:&quot;989d45295a07a0fd848235342505be89c74980fbc630b9b6fa108926bedb92c3&quot;,&quot;validator_set_hash&quot;:&quot;8b2cb9f8eb296dd1491d3ed777da3f7264dd4d0bc467556902ebe63363577dfc&quot;}</metadata>
<defs>
<style><![CDATA[text{font-family:Sora,Rajdhani,Segoe UI,Arial,sans-serif} .mono{font-family:SFMono-Regular,Consolas,Menlo,monospace}]]></style>
<radialGradient id="bg-radial" cx="50%" cy="45%" r="72%"><stop offset="0%" stop-color="#111622"/><stop offset="50%" stop-color="#05070d"/><stop offset="100%" stop-color="#030206"/></radialGradient>
<linearGradient id="energy-gradient" x1="8%" y1="12%" x2="92%" y2="88%"><stop offset="0%" stop-color="#00ff66"/><stop offset="32%" stop-color="#00ced1"/><stop offset="66%" stop-color="#0060ff"/><stop offset="100%" stop-color="#7d00ff"/></linearGradient>
<linearGradient id="core-gradient" x1="25%" y1="10%" x2="80%" y2="90%"><stop offset="0%" stop-color="#ffffff"/><stop offset="38%" stop-color="#00ffd4"/><stop offset="72%" stop-color="#00ced1"/><stop offset="100%" stop-color="#7d00ff"/></linearGradient>
<linearGradient id="gold-magenta" x1="0%" y1="0%" x2="100%" y2="100%"><stop offset="0%" stop-color="#ffd700"/><stop offset="100%" stop-color="#ff00e5"/></linearGradient>
<filter id="core-glow" x="-35%" y="-35%" width="170%" height="170%"><feGaussianBlur stdDeviation="16" result="blur"/><feColorMatrix in="blur" type="matrix" values="0 0 0 0 0 0 0 0 0 1 0 0 0 0 0.83 0 0 0 .42 0"/><feMerge><feMergeNode/><feMergeNode in="SourceGraphic"/></feMerge></filter>
<filter id="line-glow" x="-20%" y="-20%" width="140%" height="140%"><feGaussianBlur stdDeviation="5" result="blur"/><feMerge><feMergeNode in="blur"/><feMergeNode in="SourceGraphic"/></feMerge></filter>
</defs>
<rect width="100%" height="100%" fill="url(#bg-radial)"/>
<rect x="130" y="130" width="3040" height="2290" rx="0" fill="none" stroke="url(#energy-gradient)" stroke-width="7"/>
<rect x="180" y="180" width="2940" height="2190" rx="0" fill="none" stroke="#ffd700" stroke-width="2" opacity="0.72"/>
<g id="synergy-genesis-motif">
<g opacity="0.38" fill="none">
<circle cx="1650" cy="1040" r="220.9" stroke="#00ff66" stroke-width="3.29" stroke-dasharray="2 24" transform="rotate(154 1650 1040)"/>
<circle cx="1650" cy="1040" r="357.2" stroke="#00ced1" stroke-width="3.29" stroke-dasharray="18 30" transform="rotate(171 1650 1040)"/>
<circle cx="1650" cy="1040" r="488.8" stroke="#0060ff" stroke-width="3.29" stroke-dasharray="2 24" transform="rotate(188 1650 1040)"/>
<circle cx="1650" cy="1040" r="620.4" stroke="#7d00ff" stroke-width="3.29" stroke-dasharray="18 30" transform="rotate(205 1650 1040)"/>
</g>
<g opacity="0.38" stroke="#ffd700" stroke-width="2.35" stroke-linecap="round">
<line x1="1016.35" y1="1349.052" x2="982.556" y2="1365.534"/>
<line x1="955.711" y1="917.578" x2="941.825" y2="915.13"/>
<line x1="1027.522" y1="709.023" x2="1015.072" y2="702.403"/>
<line x1="1340.948" y1="406.35" x2="1324.466" y2="372.556"/>
<line x1="1551.883" y1="341.861" x2="1549.921" y2="327.898"/>
<line x1="1980.977" y1="417.522" x2="1987.597" y2="405.072"/>
<line x1="2157.135" y1="550.266" x2="2167.277" y2="540.471"/>
<line x1="2348.139" y1="941.883" x2="2362.102" y2="939.921"/>
<line x1="2344.289" y1="1162.422" x2="2358.175" y2="1164.87"/>
<line x1="2139.734" y1="1547.135" x2="2149.529" y2="1557.277"/>
<line x1="1959.052" y1="1673.65" x2="1975.534" y2="1707.444"/>
<line x1="1527.578" y1="1734.289" x2="1525.13" y2="1748.175"/>
<line x1="1319.023" y1="1662.478" x2="1312.403" y2="1674.928"/>
</g>
<path d="M 1113.157 865.569 L 1650 475.53 L 2186.843 865.569 L 1981.787 1496.666 L 1318.213 1496.666 Z" fill="#05070d" opacity="0.16" stroke="#00ced1" stroke-width="0.94"/>
<g stroke-linecap="round" stroke-linejoin="round" fill="none" opacity="1">
<path d="M 1113.157 865.569 L 1650 475.53" stroke="#00ff66" stroke-width="25.38" fill="none"/>
<path d="M 1113.157 865.569 L 1650 475.53" stroke="#00ffd4" stroke-width="4.7" fill="none" opacity="0.5"/>
<path d="M 1650 475.53 L 2186.843 865.569" stroke="#00ced1" stroke-width="25.38" fill="none"/>
<path d="M 1650 475.53 L 2186.843 865.569" stroke="#00ffd4" stroke-width="4.7" fill="none" opacity="0.5"/>
<path d="M 2186.843 865.569 L 1981.787 1496.666" stroke="#0060ff" stroke-width="25.38" fill="none"/>
<path d="M 2186.843 865.569 L 1981.787 1496.666" stroke="#00ffd4" stroke-width="4.7" fill="none" opacity="0.5"/>
<path d="M 1981.787 1496.666 L 1318.213 1496.666" stroke="#7d00ff" stroke-width="25.38" fill="none"/>
<path d="M 1981.787 1496.666 L 1318.213 1496.666" stroke="#00ffd4" stroke-width="4.7" fill="none" opacity="0.5"/>
<path d="M 1318.213 1496.666 L 1113.157 865.569" stroke="#00ff66" stroke-width="25.38" fill="none"/>
<path d="M 1318.213 1496.666 L 1113.157 865.569" stroke="#00ffd4" stroke-width="4.7" fill="none" opacity="0.5"/>
</g>
<g stroke-linecap="round" fill="none" opacity="0.24">
<path d="M 1113.157 865.569 Q 1650 931.853 2186.843 865.569" stroke="#00ced1" stroke-width="3.76"/>
<path d="M 1650 475.53 Q 1547.146 1006.581 1318.213 1496.666" stroke="#00ced1" stroke-width="3.76"/>
<path d="M 1113.157 865.569 Q 1586.433 1127.493 1981.787 1496.666" stroke="#00ced1" stroke-width="3.76"/>
</g>
<g opacity="0.22" stroke="#7d00ff" stroke-width="1.41" fill="none">
<line x1="1533.222" y1="1066.96" x2="1436.243" y2="921.513"/>
<line x1="1556.111" y1="965.509" x2="1609.362" y2="799.002"/>
<line x1="1649.701" y1="920.15" x2="1813.082" y2="857.968"/>
<line x1="1743.516" y1="965.041" x2="1893.998" y2="1054.008"/>
<line x1="1766.911" y1="1066.378" x2="1791.179" y2="1239.499"/>
<line x1="1702.27" y1="1147.851" x2="1582.049" y2="1274.764"/>
<line x1="1598.268" y1="1148.11" x2="1424.087" y2="1133.246"/>
</g>
<g id="genesis-core" filter="url(#core-glow)">
<polygon points="1682.775,1181.966 1525.111,1115.041 1540.039,944.412 1706.93,905.882 1795.146,1052.699" fill="#0a0e18" stroke="url(#energy-gradient)" stroke-width="6.11" opacity="0.94"/>
<polygon points="1550.219,1009.494 1626.529,938.334 1726.309,968.84 1749.781,1070.506 1673.471,1141.666 1573.691,1111.16" fill="none" stroke="#00ffd4" stroke-width="3.76" opacity="0.82"/>
<polygon points="1630.969,957.568 1730.903,1064.735 1588.127,1097.697" fill="#00ffd4" opacity="0.18" stroke="#ffffff" stroke-width="1.41"/>
<polygon points="1669.031,1122.432 1569.097,1015.265 1711.873,982.303" fill="#7d00ff" opacity="0.2" stroke="#00ced1" stroke-width="1.41"/>
<polygon points="1602.967,1010.611 1679.389,992.967 1697.033,1069.389 1620.611,1087.033" fill="url(#core-gradient)" stroke="#ffffff" stroke-width="1.88"/>
<circle cx="1650" cy="1040" r="13.16" fill="#ffffff"/>
</g>
<g id="genesis-validators">
<g id="validator-1-node">
<circle cx="1113.157" cy="865.569" r="57.34" fill="#030206" stroke="#00ff66" stroke-width="3.76" opacity="0.98"/>
<circle cx="1113.157" cy="865.569" r="46.06" fill="#111622" stroke="url(#energy-gradient)" stroke-width="2.35"/>
<polygon points="1092.29,850.408 1121.128,841.038 1138.951,865.569 1121.128,890.1 1092.29,880.73" fill="#00ff66" opacity="0.34"/>
<circle cx="1113.157" cy="865.569" r="8.291" fill="#ffd700"/>
</g>
<g id="validator-2-node">
<circle cx="1650" cy="475.53" r="57.34" fill="#030206" stroke="#00ced1" stroke-width="3.76" opacity="0.98"/>
<circle cx="1650" cy="475.53" r="46.06" fill="#111622" stroke="url(#energy-gradient)" stroke-width="2.35"/>
<polygon points="1657.971,450.999 1675.794,475.53 1657.971,500.061 1629.133,490.691 1629.133,460.369" fill="#00ced1" opacity="0.34"/>
<circle cx="1650" cy="475.53" r="8.291" fill="#ffd700"/>
</g>
<g id="validator-3-node">
<circle cx="2186.843" cy="865.569" r="57.34" fill="#030206" stroke="#0060ff" stroke-width="3.76" opacity="0.98"/>
<circle cx="2186.843" cy="865.569" r="46.06" fill="#111622" stroke="url(#energy-gradient)" stroke-width="2.35"/>
<polygon points="2212.636,865.569 2194.814,890.1 2165.975,880.73 2165.975,850.408 2194.814,841.038" fill="#0060ff" opacity="0.34"/>
<circle cx="2186.843" cy="865.569" r="8.291" fill="#ffd700"/>
</g>
<g id="validator-4-node">
<circle cx="1981.787" cy="1496.666" r="57.34" fill="#030206" stroke="#7d00ff" stroke-width="3.76" opacity="0.98"/>
<circle cx="1981.787" cy="1496.666" r="46.06" fill="#111622" stroke="url(#energy-gradient)" stroke-width="2.35"/>
<polygon points="1989.758,1521.197 1960.92,1511.827 1960.92,1481.505 1989.758,1472.135 2007.581,1496.666" fill="#7d00ff" opacity="0.34"/>
<circle cx="1981.787" cy="1496.666" r="8.291" fill="#ffd700"/>
</g>
<g id="validator-5-node">
<circle cx="1318.213" cy="1496.666" r="57.34" fill="#030206" stroke="#00ffd4" stroke-width="3.76" opacity="0.98"/>
<circle cx="1318.213" cy="1496.666" r="46.06" fill="#111622" stroke="url(#energy-gradient)" stroke-width="2.35"/>
<polygon points="1297.345,1511.827 1297.345,1481.505 1326.184,1472.135 1344.006,1496.666 1326.184,1521.197" fill="#00ffd4" opacity="0.34"/>
<circle cx="1318.213" cy="1496.666" r="8.291" fill="#ffd700"/>
</g>
</g>
<text x="1650" y="1763.8" text-anchor="middle" font-size="62" font-weight="800" letter-spacing="0" fill="#f2f7ff" opacity="0.72">1264</text>
</g>
<text x="1650" y="360" text-anchor="middle" font-size="120" font-weight="850" letter-spacing="0" fill="#ffffff" opacity="1">SYNERGY TESTNET</text>
<text x="1650" y="530" text-anchor="middle" font-size="70" font-weight="700" letter-spacing="0" fill="#c5d9e8" opacity="1">GENESIS CERTIFICATE</text>
<text x="1650" y="1765" text-anchor="middle" font-size="46" font-weight="700" letter-spacing="0" fill="#00ffd4" opacity="1">CHAIN 1264 / MAGIC e312fa40 / POST-QUANTUM DAG CONSENSUS</text>
<text class="mono" x="1650" y="1905" text-anchor="middle" font-size="46" font-weight="700" letter-spacing="0" fill="#f2f7ff" opacity="1">GENESIS HASH 85b26d52...c4394c75</text>
<text class="mono" x="1650" y="2165" text-anchor="middle" font-size="30" font-weight="400" letter-spacing="0" fill="#5e7280" opacity="0.68">85b26d520e1621adaa212012dae540dcb223e0a9648666b919d64cb8c4394c75</text>
</svg>
