<svg xmlns="http://www.w3.org/2000/svg" width="5400" height="7200" viewBox="0 0 5400 7200" role="img" aria-label="Synergy Testnet genesis poster">
<metadata>{&quot;art_seed&quot;:&quot;e5b9fcdcfbaf9aaba759afee722b7bae9da187a61f7dcbb1ae122cccc0f2707c&quot;,&quot;chain_id&quot;:1264,&quot;dag_topology_seed&quot;:&quot;22a0e56bc1c8dbbea6de4c22a6837566e292100f1c7558f8ec743e12d0248f89&quot;,&quot;generator_version&quot;:&quot;synergy-genesis-art-v2.0.0&quot;,&quot;genesis_hash&quot;:&quot;85b26d520e1621adaa212012dae540dcb223e0a9648666b919d64cb8c4394c75&quot;,&quot;kind&quot;:&quot;poster&quot;,&quot;network_magic_bytes&quot;:&quot;e312fa40&quot;,&quot;state_root&quot;:&quot;989d45295a07a0fd848235342505be89c74980fbc630b9b6fa108926bedb92c3&quot;,&quot;validator_set_hash&quot;:&quot;8b2cb9f8eb296dd1491d3ed777da3f7264dd4d0bc467556902ebe63363577dfc&quot;}</metadata>
<defs>
<style><![CDATA[text{font-family:Sora,Rajdhani,Segoe UI,Arial,sans-serif} .mono{font-family:SFMono-Regular,Consolas,Menlo,monospace}]]></style>
<radialGradient id="bg-radial" cx="50%" cy="45%" r="72%"><stop offset="0%" stop-color="#111622"/><stop offset="50%" stop-color="#05070d"/><stop offset="100%" stop-color="#030206"/></radialGradient>
<linearGradient id="energy-gradient" x1="8%" y1="12%" x2="92%" y2="88%"><stop offset="0%" stop-color="#00ff66"/><stop offset="32%" stop-color="#00ced1"/><stop offset="66%" stop-color="#0060ff"/><stop offset="100%" stop-color="#7d00ff"/></linearGradient>
<linearGradient id="core-gradient" x1="25%" y1="10%" x2="80%" y2="90%"><stop offset="0%" stop-color="#ffffff"/><stop offset="38%" stop-color="#00ffd4"/><stop offset="72%" stop-color="#00ced1"/><stop offset="100%" stop-color="#7d00ff"/></linearGradient>
<linearGradient id="gold-magenta" x1="0%" y1="0%" x2="100%" y2="100%"><stop offset="0%" stop-color="#ffd700"/><stop offset="100%" stop-color="#ff00e5"/></linearGradient>
<filter id="core-glow" x="-35%" y="-35%" width="170%" height="170%"><feGaussianBlur stdDeviation="16" result="blur"/><feColorMatrix in="blur" type="matrix" values="0 0 0 0 0 0 0 0 0 1 0 0 0 0 0.83 0 0 0 .42 0"/><feMerge><feMergeNode/><feMergeNode in="SourceGraphic"/></feMerge></filter>
<filter id="line-glow" x="-20%" y="-20%" width="140%" height="140%"><feGaussianBlur stdDeviation="5" result="blur"/><feMerge><feMergeNode in="blur"/><feMergeNode in="SourceGraphic"/></feMerge></filter>
</defs>
<rect width="100%" height="100%" fill="url(#bg-radial)"/>
<g opacity="0.18" stroke="#111622" stroke-width="1">
<line x1="240" y1="0" x2="240" y2="7200"/>
<line x1="480" y1="0" x2="480" y2="7200"/>
<line x1="720" y1="0" x2="720" y2="7200"/>
<line x1="960" y1="0" x2="960" y2="7200"/>
<line x1="1200" y1="0" x2="1200" y2="7200"/>
<line x1="1440" y1="0" x2="1440" y2="7200"/>
<line x1="1680" y1="0" x2="1680" y2="7200"/>
<line x1="1920" y1="0" x2="1920" y2="7200"/>
<line x1="2160" y1="0" x2="2160" y2="7200"/>
<line x1="2400" y1="0" x2="2400" y2="7200"/>
<line x1="2640" y1="0" x2="2640" y2="7200"/>
<line x1="2880" y1="0" x2="2880" y2="7200"/>
<line x1="3120" y1="0" x2="3120" y2="7200"/>
<line x1="3360" y1="0" x2="3360" y2="7200"/>
<line x1="3600" y1="0" x2="3600" y2="7200"/>
<line x1="3840" y1="0" x2="3840" y2="7200"/>
<line x1="4080" y1="0" x2="4080" y2="7200"/>
<line x1="4320" y1="0" x2="4320" y2="7200"/>
<line x1="4560" y1="0" x2="4560" y2="7200"/>
<line x1="4800" y1="0" x2="4800" y2="7200"/>
<line x1="5040" y1="0" x2="5040" y2="7200"/>
<line x1="5280" y1="0" x2="5280" y2="7200"/>
<line x1="0" y1="240" x2="5400" y2="240"/>
<line x1="0" y1="480" x2="5400" y2="480"/>
<line x1="0" y1="720" x2="5400" y2="720"/>
<line x1="0" y1="960" x2="5400" y2="960"/>
<line x1="0" y1="1200" x2="5400" y2="1200"/>
<line x1="0" y1="1440" x2="5400" y2="1440"/>
<line x1="0" y1="1680" x2="5400" y2="1680"/>
<line x1="0" y1="1920" x2="5400" y2="1920"/>
<line x1="0" y1="2160" x2="5400" y2="2160"/>
<line x1="0" y1="2400" x2="5400" y2="2400"/>
<line x1="0" y1="2640" x2="5400" y2="2640"/>
<line x1="0" y1="2880" x2="5400" y2="2880"/>
<line x1="0" y1="3120" x2="5400" y2="3120"/>
<line x1="0" y1="3360" x2="5400" y2="3360"/>
<line x1="0" y1="3600" x2="5400" y2="3600"/>
<line x1="0" y1="3840" x2="5400" y2="3840"/>
<line x1="0" y1="4080" x2="5400" y2="4080"/>
<line x1="0" y1="4320" x2="5400" y2="4320"/>
<line x1="0" y1="4560" x2="5400" y2="4560"/>
<line x1="0" y1="4800" x2="5400" y2="4800"/>
<line x1="0" y1="5040" x2="5400" y2="5040"/>
<line x1="0" y1="5280" x2="5400" y2="5280"/>
<line x1="0" y1="5520" x2="5400" y2="5520"/>
<line x1="0" y1="5760" x2="5400" y2="5760"/>
<line x1="0" y1="6000" x2="5400" y2="6000"/>
<line x1="0" y1="6240" x2="5400" y2="6240"/>
<line x1="0" y1="6480" x2="5400" y2="6480"/>
<line x1="0" y1="6720" x2="5400" y2="6720"/>
<line x1="0" y1="6960" x2="5400" y2="6960"/>
</g>
<g id="synergy-genesis-motif">
<g opacity="0.38" fill="none">
<circle cx="2700" cy="3100" r="507.4" stroke="#00ff66" stroke-width="8.26" stroke-dasharray="2 24" transform="rotate(154 2700 3100)"/>
<circle cx="2700" cy="3100" r="814.2" stroke="#00ced1" stroke-width="8.26" stroke-dasharray="18 30" transform="rotate(171 2700 3100)"/>
<circle cx="2700" cy="3100" r="1109.2" stroke="#0060ff" stroke-width="8.26" stroke-dasharray="2 24" transform="rotate(188 2700 3100)"/>
<circle cx="2700" cy="3100" r="1640.2" stroke="#7d00ff" stroke-width="8.26" stroke-dasharray="18 30" transform="rotate(205 2700 3100)"/>
</g>
<g opacity="0.38" stroke="#ffd700" stroke-width="5.9" stroke-linecap="round">
<line x1="1109.135" y1="3875.917" x2="1024.288" y2="3917.299"/>
<line x1="943.392" y1="3317.322" x2="908.26" y2="3321.669"/>
<line x1="931.58" y1="3025.23" x2="896.212" y2="3023.735"/>
<line x1="1051.676" y1="2455.076" x2="963.765" y2="2420.681"/>
<line x1="1180.307" y1="2192.567" x2="1149.914" y2="2174.418"/>
<line x1="1557.292" y1="1748.291" x2="1534.437" y2="1721.257"/>
<line x1="1795.361" y1="1578.643" x2="1777.268" y2="1548.216"/>
<line x1="2338.36" y1="1367.338" x2="2331.128" y2="1332.685"/>
<line x1="2628.479" y1="1331.446" x2="2627.049" y2="1296.074"/>
<line x1="3206.603" y1="1404.048" x2="3216.735" y2="1370.129"/>
<line x1="3478.838" y1="1510.563" x2="3520.376" y2="1425.793"/>
<line x1="3952.728" y1="1849.571" x2="3977.783" y2="1824.563"/>
<line x1="4141.456" y1="2072.818" x2="4170.286" y2="2052.274"/>
<line x1="4396.88" y1="2596.513" x2="4487.38" y2="2569.661"/>
<line x1="4456.608" y1="2882.678" x2="4491.74" y2="2878.331"/>
<line x1="4431.994" y1="3464.822" x2="4466.634" y2="3472.119"/>
<line x1="4348.324" y1="3744.924" x2="4381.291" y2="3757.822"/>
<line x1="4049.607" y1="4245.19" x2="4076.6" y2="4268.094"/>
<line x1="3842.708" y1="4451.709" x2="3865.563" y2="4478.743"/>
<line x1="3341.894" y1="4749.507" x2="3354.732" y2="4782.497"/>
<line x1="3061.64" y1="4832.662" x2="3080.927" y2="4925.07"/>
<line x1="2479.451" y1="4856.206" x2="2475.04" y2="4891.33"/>
<line x1="2193.397" y1="4795.952" x2="2183.265" y2="4829.871"/>
<line x1="1670.171" y1="4539.567" x2="1615.247" y2="4616.344"/>
<line x1="1447.272" y1="4350.429" x2="1422.217" y2="4375.437"/>
</g>
<path d="M 1352.182 2662.067 L 2700 1682.82 L 4047.818 2662.067 L 3532.998 4246.523 L 1867.002 4246.523 Z" fill="#05070d" opacity="0.16" stroke="#00ced1" stroke-width="2.36"/>
<g stroke-linecap="round" stroke-linejoin="round" fill="none" opacity="1">
<path d="M 1352.182 2662.067 L 2700 1682.82" stroke="#00ff66" stroke-width="63.72" fill="none"/>
<path d="M 1352.182 2662.067 L 2700 1682.82" stroke="#00ffd4" stroke-width="11.8" fill="none" opacity="0.5"/>
<path d="M 2700 1682.82 L 4047.818 2662.067" stroke="#00ced1" stroke-width="63.72" fill="none"/>
<path d="M 2700 1682.82 L 4047.818 2662.067" stroke="#00ffd4" stroke-width="11.8" fill="none" opacity="0.5"/>
<path d="M 4047.818 2662.067 L 3532.998 4246.523" stroke="#0060ff" stroke-width="63.72" fill="none"/>
<path d="M 4047.818 2662.067 L 3532.998 4246.523" stroke="#00ffd4" stroke-width="11.8" fill="none" opacity="0.5"/>
<path d="M 3532.998 4246.523 L 1867.002 4246.523" stroke="#7d00ff" stroke-width="63.72" fill="none"/>
<path d="M 3532.998 4246.523 L 1867.002 4246.523" stroke="#00ffd4" stroke-width="11.8" fill="none" opacity="0.5"/>
<path d="M 1867.002 4246.523 L 1352.182 2662.067" stroke="#00ff66" stroke-width="63.72" fill="none"/>
<path d="M 1867.002 4246.523 L 1352.182 2662.067" stroke="#00ffd4" stroke-width="11.8" fill="none" opacity="0.5"/>
</g>
<g stroke-linecap="round" fill="none" opacity="0.24">
<path d="M 1352.182 2662.067 Q 2700 2828.482 4047.818 2662.067" stroke="#00ced1" stroke-width="9.44"/>
<path d="M 2700 1682.82 Q 2441.771 3016.096 1867.002 4246.523" stroke="#00ced1" stroke-width="9.44"/>
<path d="M 1352.182 2662.067 Q 2540.406 3319.663 3532.998 4246.523" stroke="#00ced1" stroke-width="9.44"/>
</g>
<g opacity="0.22" stroke="#7d00ff" stroke-width="3.54" fill="none">
<line x1="2406.812" y1="3167.688" x2="2163.333" y2="2802.521"/>
<line x1="2464.28" y1="2912.979" x2="2597.972" y2="2494.942"/>
<line x1="2699.25" y1="2799.101" x2="3109.44" y2="2642.984"/>
<line x1="2934.785" y1="2911.806" x2="3312.591" y2="3135.169"/>
<line x1="2993.522" y1="3166.225" x2="3054.449" y2="3600.87"/>
<line x1="2831.231" y1="3370.775" x2="2529.399" y2="3689.407"/>
<line x1="2570.121" y1="3371.426" x2="2132.815" y2="3334.108"/>
</g>
<g id="genesis-core" filter="url(#core-glow)">
<polygon points="2782.287,3456.425 2386.448,3288.401 2423.927,2860.014 2842.929,2763.279 3064.408,3131.882" fill="#0a0e18" stroke="url(#energy-gradient)" stroke-width="15.34" opacity="0.94"/>
<polygon points="2449.486,3023.41 2641.072,2844.754 2891.585,2921.344 2950.514,3176.59 2758.928,3355.246 2508.415,3278.656" fill="none" stroke="#00ffd4" stroke-width="9.44" opacity="0.82"/>
<polygon points="2652.22,2893.044 2903.119,3162.1 2544.66,3244.856" fill="#00ffd4" opacity="0.18" stroke="#ffffff" stroke-width="3.54"/>
<polygon points="2747.78,3306.956 2496.881,3037.9 2855.34,2955.144" fill="#7d00ff" opacity="0.2" stroke="#00ced1" stroke-width="3.54"/>
<polygon points="2581.918,3026.214 2773.786,2981.918 2818.082,3173.786 2626.214,3218.082" fill="url(#core-gradient)" stroke="#ffffff" stroke-width="4.72"/>
<circle cx="2700" cy="3100" r="33.04" fill="#ffffff"/>
</g>
<g id="genesis-validators">
<g id="validator-1-node">
<circle cx="1352.182" cy="2662.067" r="143.96" fill="#030206" stroke="#00ff66" stroke-width="9.44" opacity="0.98"/>
<circle cx="1352.182" cy="2662.067" r="115.64" fill="#111622" stroke="url(#energy-gradient)" stroke-width="5.9"/>
<polygon points="1299.791,2624.003 1372.193,2600.478 1416.94,2662.067 1372.193,2723.656 1299.791,2700.131" fill="#00ff66" opacity="0.34"/>
<circle cx="1352.182" cy="2662.067" r="20.815" fill="#ffd700"/>
<text class="mono" x="1094.065" y="2578.2" text-anchor="middle" font-size="63" font-weight="700" letter-spacing="0" fill="#c5d9e8" opacity="0.88">V1 / 6ec2d413</text>
</g>
<g id="validator-2-node">
<circle cx="2700" cy="1682.82" r="143.96" fill="#030206" stroke="#00ced1" stroke-width="9.44" opacity="0.98"/>
<circle cx="2700" cy="1682.82" r="115.64" fill="#111622" stroke="url(#energy-gradient)" stroke-width="5.9"/>
<polygon points="2720.011,1621.231 2764.758,1682.82 2720.011,1744.409 2647.609,1720.884 2647.609,1644.756" fill="#00ced1" opacity="0.34"/>
<circle cx="2700" cy="1682.82" r="20.815" fill="#ffd700"/>
<text class="mono" x="2700" y="1411.42" text-anchor="middle" font-size="63" font-weight="700" letter-spacing="0" fill="#c5d9e8" opacity="0.88">V2 / 38aec149</text>
</g>
<g id="validator-3-node">
<circle cx="4047.818" cy="2662.067" r="143.96" fill="#030206" stroke="#0060ff" stroke-width="9.44" opacity="0.98"/>
<circle cx="4047.818" cy="2662.067" r="115.64" fill="#111622" stroke="url(#energy-gradient)" stroke-width="5.9"/>
<polygon points="4112.577,2662.067 4067.83,2723.656 3995.428,2700.131 3995.428,2624.003 4067.83,2600.478" fill="#0060ff" opacity="0.34"/>
<circle cx="4047.818" cy="2662.067" r="20.815" fill="#ffd700"/>
<text class="mono" x="4305.935" y="2578.2" text-anchor="middle" font-size="63" font-weight="700" letter-spacing="0" fill="#c5d9e8" opacity="0.88">V3 / feca1787</text>
</g>
<g id="validator-4-node">
<circle cx="3532.998" cy="4246.523" r="143.96" fill="#030206" stroke="#7d00ff" stroke-width="9.44" opacity="0.98"/>
<circle cx="3532.998" cy="4246.523" r="115.64" fill="#111622" stroke="url(#energy-gradient)" stroke-width="5.9"/>
<polygon points="3553.009,4308.112 3480.607,4284.587 3480.607,4208.459 3553.009,4184.934 3597.756,4246.523" fill="#7d00ff" opacity="0.34"/>
<circle cx="3532.998" cy="4246.523" r="20.815" fill="#ffd700"/>
<text class="mono" x="3692.522" y="4466.09" text-anchor="middle" font-size="63" font-weight="700" letter-spacing="0" fill="#c5d9e8" opacity="0.88">V4 / f40a5e73</text>
</g>
<g id="validator-5-node">
<circle cx="1867.002" cy="4246.523" r="143.96" fill="#030206" stroke="#00ffd4" stroke-width="9.44" opacity="0.98"/>
<circle cx="1867.002" cy="4246.523" r="115.64" fill="#111622" stroke="url(#energy-gradient)" stroke-width="5.9"/>
<polygon points="1814.612,4284.587 1814.612,4208.459 1887.014,4184.934 1931.761,4246.523 1887.014,4308.112" fill="#00ffd4" opacity="0.34"/>
<circle cx="1867.002" cy="4246.523" r="20.815" fill="#ffd700"/>
<text class="mono" x="1707.478" y="4466.09" text-anchor="middle" font-size="63" font-weight="700" letter-spacing="0" fill="#c5d9e8" opacity="0.88">V5 / 2548c636</text>
</g>
</g>
</g>
<text x="2700" y="650" text-anchor="middle" font-size="218" font-weight="850" letter-spacing="0" fill="#ffffff" opacity="1">SYNERGY TESTNET</text>
<text x="2700" y="850" text-anchor="middle" font-size="88" font-weight="700" letter-spacing="0" fill="#c5d9e8" opacity="1">DETERMINISTIC GENESIS ARTIFACT</text>
<text x="2700" y="5450" text-anchor="middle" font-size="98" font-weight="800" letter-spacing="0" fill="#00ffd4" opacity="1">POST-QUANTUM DAG CONSENSUS</text>
<text x="2700" y="5625" text-anchor="middle" font-size="70" font-weight="650" letter-spacing="0" fill="#f2f7ff" opacity="1">CHAIN 1264   /   MAGIC e312fa40   /   FIVE GENESIS VALIDATORS</text>
<text class="mono" x="2700" y="5875" text-anchor="middle" font-size="74" font-weight="700" letter-spacing="0" fill="#c5d9e8" opacity="1">GENESIS HASH 85b26d52...c4394c75</text>
<text class="mono" x="2700" y="6800" text-anchor="middle" font-size="42" font-weight="400" letter-spacing="0" fill="#5e7280" opacity="0.72">FULL GENESIS HASH 85b26d520e1621adaa212012dae540dcb223e0a9648666b919d64cb8c4394c75</text>
<text class="mono" x="2700" y="6905" text-anchor="middle" font-size="38" font-weight="400" letter-spacing="0" fill="#5e7280" opacity="0.56">ART SEED e5b9fcdcfbaf9aaba759afee722b7bae9da187a61f7dcbb1ae122cccc0f2707c</text>
</svg>
