<svg xmlns="http://www.w3.org/2000/svg" width="2048" height="2048" viewBox="0 0 4096 4096" role="img" aria-label="Synergy Testnet genesis engraving sigil">
<metadata>{&quot;art_seed&quot;:&quot;e5b9fcdcfbaf9aaba759afee722b7bae9da187a61f7dcbb1ae122cccc0f2707c&quot;,&quot;chain_id&quot;:1264,&quot;dag_topology_seed&quot;:&quot;22a0e56bc1c8dbbea6de4c22a6837566e292100f1c7558f8ec743e12d0248f89&quot;,&quot;generator_version&quot;:&quot;synergy-genesis-art-v2.0.0&quot;,&quot;genesis_hash&quot;:&quot;85b26d520e1621adaa212012dae540dcb223e0a9648666b919d64cb8c4394c75&quot;,&quot;kind&quot;:&quot;monochrome engraving&quot;,&quot;network_magic_bytes&quot;:&quot;e312fa40&quot;,&quot;state_root&quot;:&quot;989d45295a07a0fd848235342505be89c74980fbc630b9b6fa108926bedb92c3&quot;,&quot;validator_set_hash&quot;:&quot;8b2cb9f8eb296dd1491d3ed777da3f7264dd4d0bc467556902ebe63363577dfc&quot;}</metadata>
<rect width="100%" height="100%" fill="#030206"/>
<g fill="none" stroke="#f2f7ff" stroke-linecap="round" stroke-linejoin="round">
<circle cx="2048" cy="2048" r="520" stroke-width="7" opacity="0.72"/>
<circle cx="2048" cy="2048" r="800" stroke-width="7" opacity="0.72"/>
<circle cx="2048" cy="2048" r="1110" stroke-width="7" opacity="0.72"/>
<circle cx="2048" cy="2048" r="1420" stroke-width="7" opacity="0.72"/>
<path d="M 905.781 1676.871 L 2048 847 L 3190.219 1676.871 L 2753.93 3019.629 L 1342.07 3019.629 Z" stroke="#00ffd4" stroke-width="22"/>
<line x1="905.781" y1="1676.871" x2="3190.219" y2="1676.871" stroke="#f2f7ff" stroke-width="6" opacity="0.55"/>
<line x1="2048" y1="847" x2="1342.07" y2="3019.629" stroke="#f2f7ff" stroke-width="6" opacity="0.55"/>
<line x1="905.781" y1="1676.871" x2="2753.93" y2="3019.629" stroke="#f2f7ff" stroke-width="6" opacity="0.55"/>
<polygon points="2119.984,2359.798 1773.706,2212.812 1806.493,1838.061 2173.034,1753.438 2366.782,2075.89" stroke="#00ffd4" stroke-width="18"/>
<polygon points="1847.176,1986.602 2000.76,1843.382 2201.584,1904.78 2248.824,2109.398 2095.24,2252.618 1894.416,2191.22" stroke="#f2f7ff" stroke-width="10"/>
<polygon points="1946.234,1984.41 2111.59,1946.234 2149.766,2111.59 1984.41,2149.766" stroke="#00ffd4" stroke-width="12"/>
<circle cx="905.781" cy="1676.871" r="112" stroke="#00ffd4" stroke-width="14"/>
<circle cx="905.781" cy="1676.871" r="36" stroke="#f2f7ff" stroke-width="10"/>
<circle cx="2048" cy="847" r="112" stroke="#00ffd4" stroke-width="14"/>
<circle cx="2048" cy="847" r="36" stroke="#f2f7ff" stroke-width="10"/>
<circle cx="3190.219" cy="1676.871" r="112" stroke="#00ffd4" stroke-width="14"/>
<circle cx="3190.219" cy="1676.871" r="36" stroke="#f2f7ff" stroke-width="10"/>
<circle cx="2753.93" cy="3019.629" r="112" stroke="#00ffd4" stroke-width="14"/>
<circle cx="2753.93" cy="3019.629" r="36" stroke="#f2f7ff" stroke-width="10"/>
<circle cx="1342.07" cy="3019.629" r="112" stroke="#00ffd4" stroke-width="14"/>
<circle cx="1342.07" cy="3019.629" r="36" stroke="#f2f7ff" stroke-width="10"/>
</g>
<text x="2048" y="3635" text-anchor="middle" font-size="72" font-weight="800" letter-spacing="0" fill="#f2f7ff" opacity="1">SYNERGY TESTNET / CHAIN 1264</text>
</svg>
