<svg xmlns="http://www.w3.org/2000/svg" width="3300" height="2550" viewBox="0 0 3300 2550" role="img" aria-label="Synergy Testnet genesis certificate">
<metadata>{&quot;art_seed&quot;:&quot;c8acb42f8433fa71286564ceb3a204aabd5974b84727dc415c4f47df90760d65&quot;,&quot;chain_id&quot;:1263,&quot;dag_topology_seed&quot;:&quot;6c267474d998b097189549df7c518532e343dbcb95ed7b927070804f3fc16755&quot;,&quot;generator_version&quot;:&quot;synergy-genesis-art-v2.0.0&quot;,&quot;genesis_hash&quot;:&quot;dd9ad8cfc74be1ab17a0a0fce9db65281df1b325fe5a2530130dce8935e450b8&quot;,&quot;kind&quot;:&quot;certificate&quot;,&quot;network_magic_bytes&quot;:&quot;d5d5bb99&quot;,&quot;state_root&quot;:&quot;14d22b78dcd64554bceab123bfef14b22fd642403ba07058bc13b7e1b46efa76&quot;,&quot;validator_set_hash&quot;:&quot;8b2cb9f8eb296dd1491d3ed777da3f7264dd4d0bc467556902ebe63363577dfc&quot;}</metadata>
<defs>
<style><![CDATA[text{font-family:Sora,Rajdhani,Segoe UI,Arial,sans-serif} .mono{font-family:SFMono-Regular,Consolas,Menlo,monospace}]]></style>
<radialGradient id="bg-radial" cx="50%" cy="45%" r="72%"><stop offset="0%" stop-color="#111622"/><stop offset="50%" stop-color="#05070d"/><stop offset="100%" stop-color="#030206"/></radialGradient>
<linearGradient id="energy-gradient" x1="8%" y1="12%" x2="92%" y2="88%"><stop offset="0%" stop-color="#00ff66"/><stop offset="32%" stop-color="#00ced1"/><stop offset="66%" stop-color="#0060ff"/><stop offset="100%" stop-color="#7d00ff"/></linearGradient>
<linearGradient id="core-gradient" x1="25%" y1="10%" x2="80%" y2="90%"><stop offset="0%" stop-color="#ffffff"/><stop offset="38%" stop-color="#00ffd4"/><stop offset="72%" stop-color="#00ced1"/><stop offset="100%" stop-color="#7d00ff"/></linearGradient>
<linearGradient id="gold-magenta" x1="0%" y1="0%" x2="100%" y2="100%"><stop offset="0%" stop-color="#ffd700"/><stop offset="100%" stop-color="#ff00e5"/></linearGradient>
<filter id="core-glow" x="-35%" y="-35%" width="170%" height="170%"><feGaussianBlur stdDeviation="16" result="blur"/><feColorMatrix in="blur" type="matrix" values="0 0 0 0 0 0 0 0 0 1 0 0 0 0 0.83 0 0 0 .42 0"/><feMerge><feMergeNode/><feMergeNode in="SourceGraphic"/></feMerge></filter>
<filter id="line-glow" x="-20%" y="-20%" width="140%" height="140%"><feGaussianBlur stdDeviation="5" result="blur"/><feMerge><feMergeNode in="blur"/><feMergeNode in="SourceGraphic"/></feMerge></filter>
</defs>
<rect width="100%" height="100%" fill="url(#bg-radial)"/>
<rect x="130" y="130" width="3040" height="2290" rx="0" fill="none" stroke="url(#energy-gradient)" stroke-width="7"/>
<rect x="180" y="180" width="2940" height="2190" rx="0" fill="none" stroke="#ffd700" stroke-width="2" opacity="0.72"/>
<g id="synergy-genesis-motif">
<g opacity="0.38" fill="none">
<circle cx="1650" cy="1040" r="220.9" stroke="#00ff66" stroke-width="3.29" stroke-dasharray="2 24" transform="rotate(250 1650 1040)"/>
<circle cx="1650" cy="1040" r="357.2" stroke="#00ced1" stroke-width="3.29" stroke-dasharray="18 30" transform="rotate(267 1650 1040)"/>
<circle cx="1650" cy="1040" r="488.8" stroke="#0060ff" stroke-width="3.29" stroke-dasharray="2 24" transform="rotate(284 1650 1040)"/>
<circle cx="1650" cy="1040" r="620.4" stroke="#7d00ff" stroke-width="3.29" stroke-dasharray="18 30" transform="rotate(301 1650 1040)"/>
</g>
<g opacity="0.38" stroke="#ffd700" stroke-width="2.35" stroke-linecap="round">
<line x1="1408.876" y1="377.517" x2="1396.016" y2="342.184"/>
<line x1="1805.319" y1="352.322" x2="1808.425" y2="338.568"/>
<line x1="1992.769" y1="423.936" x2="1999.624" y2="411.615"/>
<line x1="2271.425" y1="707.049" x2="2304.567" y2="689.291"/>
<line x1="2340.056" y1="895.611" x2="2353.857" y2="892.724"/>
<line x1="2308.574" y1="1291.605" x2="2321.746" y2="1296.637"/>
<line x1="2211.012" y1="1466.955" x2="2222.232" y2="1475.494"/>
<line x1="1891.124" y1="1702.483" x2="1895.947" y2="1715.733"/>
<line x1="1694.714" y1="1743.581" x2="1695.608" y2="1757.652"/>
<line x1="1307.231" y1="1656.064" x2="1300.376" y2="1668.385"/>
<line x1="1147.551" y1="1534.54" x2="1120.753" y2="1560.915"/>
<line x1="959.944" y1="1184.389" x2="946.143" y2="1187.276"/>
<line x1="947.217" y1="984.129" x2="933.162" y2="983.011"/>
<line x1="1088.988" y1="613.045" x2="1059.067" y2="590.274"/>
<line x1="1232" y1="472.284" x2="1223.64" y2="460.93"/>
</g>
<path d="M 1329.359 1515.37 L 1098.813 881.95 L 1629.989 466.949 L 2188.82 843.886 L 2003.02 1491.845 Z" fill="#05070d" opacity="0.16" stroke="#00ced1" stroke-width="0.94"/>
<g stroke-linecap="round" stroke-linejoin="round" fill="none" opacity="1">
<path d="M 1329.359 1515.37 L 1098.813 881.95" stroke="#00ff66" stroke-width="25.38" fill="none"/>
<path d="M 1329.359 1515.37 L 1098.813 881.95" stroke="#00ffd4" stroke-width="4.7" fill="none" opacity="0.5"/>
<path d="M 1098.813 881.95 L 1629.989 466.949" stroke="#00ced1" stroke-width="25.38" fill="none"/>
<path d="M 1098.813 881.95 L 1629.989 466.949" stroke="#00ffd4" stroke-width="4.7" fill="none" opacity="0.5"/>
<path d="M 1629.989 466.949 L 2188.82 843.886" stroke="#0060ff" stroke-width="25.38" fill="none"/>
<path d="M 1629.989 466.949 L 2188.82 843.886" stroke="#00ffd4" stroke-width="4.7" fill="none" opacity="0.5"/>
<path d="M 2188.82 843.886 L 2003.02 1491.845" stroke="#7d00ff" stroke-width="25.38" fill="none"/>
<path d="M 2188.82 843.886 L 2003.02 1491.845" stroke="#00ffd4" stroke-width="4.7" fill="none" opacity="0.5"/>
<path d="M 2003.02 1491.845 L 1329.359 1515.37" stroke="#00ff66" stroke-width="25.38" fill="none"/>
<path d="M 2003.02 1491.845 L 1329.359 1515.37" stroke="#00ffd4" stroke-width="4.7" fill="none" opacity="0.5"/>
</g>
<g stroke-linecap="round" fill="none" opacity="0.24">
<path d="M 1329.359 1515.37 Q 1544.398 1009.719 1629.989 466.949" stroke="#00ced1" stroke-width="3.76"/>
<path d="M 1098.813 881.95 Q 1646.166 930.209 2188.82 843.886" stroke="#00ced1" stroke-width="3.76"/>
<path d="M 1329.359 1515.37 Q 1717.635 1126.569 2188.82 843.886" stroke="#00ced1" stroke-width="3.76"/>
</g>
<g opacity="0.22" stroke="#7d00ff" stroke-width="1.41" fill="none">
<line x1="1741.81" y1="1117.038" x2="1684.014" y2="1282.022"/>
<line x1="1647.012" y1="1159.813" x2="1481.987" y2="1217.491"/>
<line x1="1554.464" y1="1112.366" x2="1406.478" y2="1019.306"/>
<line x1="1533.856" y1="1010.426" x2="1514.345" y2="836.704"/>
<line x1="1600.707" y1="930.756" x2="1724.364" y2="807.188"/>
<line x1="1704.677" y1="933.349" x2="1878.385" y2="952.984"/>
<line x1="1767.474" y1="1016.252" x2="1860.427" y2="1164.305"/>
</g>
<g id="genesis-core" filter="url(#core-glow)">
<polygon points="1743.654,928.387 1785.091,1094.58 1639.836,1185.345 1508.628,1075.248 1572.791,916.439" fill="#0a0e18" stroke="url(#energy-gradient)" stroke-width="6.11" opacity="0.94"/>
<polygon points="1685.686,1138.048 1582.932,1119.929 1547.245,1021.882 1614.314,941.952 1717.068,960.071 1752.755,1058.118" fill="none" stroke="#00ffd4" stroke-width="3.76" opacity="0.82"/>
<polygon points="1595.62,1104.807 1621.065,960.502 1733.315,1054.691" fill="#00ffd4" opacity="0.18" stroke="#ffffff" stroke-width="1.41"/>
<polygon points="1704.38,975.193 1678.935,1119.498 1566.685,1025.309" fill="#7d00ff" opacity="0.2" stroke="#00ced1" stroke-width="1.41"/>
<polygon points="1654.834,1095.249 1594.751,1044.834 1645.166,984.751 1705.249,1035.166" fill="url(#core-gradient)" stroke="#ffffff" stroke-width="1.88"/>
<circle cx="1650" cy="1040" r="13.16" fill="#ffffff"/>
</g>
<g id="genesis-validators">
<g id="validator-1-node">
<circle cx="1329.359" cy="1515.37" r="59.22" fill="#030206" stroke="#00ff66" stroke-width="3.76" opacity="0.98"/>
<circle cx="1329.359" cy="1515.37" r="47.94" fill="#111622" stroke="url(#energy-gradient)" stroke-width="2.35"/>
<polygon points="1308.204,1531.898 1307.102,1500.358 1336.759,1489.564 1356.189,1514.433 1338.541,1540.598" fill="#00ff66" opacity="0.34"/>
<circle cx="1329.359" cy="1515.37" r="8.629" fill="#ffd700"/>
</g>
<g id="validator-2-node">
<circle cx="1098.813" cy="881.95" r="59.22" fill="#030206" stroke="#00ced1" stroke-width="3.76" opacity="0.98"/>
<circle cx="1098.813" cy="881.95" r="47.94" fill="#111622" stroke="url(#energy-gradient)" stroke-width="2.35"/>
<polygon points="1076.556,866.937 1106.212,856.143 1125.643,881.013 1107.995,907.177 1077.657,898.478" fill="#00ced1" opacity="0.34"/>
<circle cx="1098.813" cy="881.95" r="8.629" fill="#ffd700"/>
</g>
<g id="validator-3-node">
<circle cx="1629.989" cy="466.949" r="59.22" fill="#030206" stroke="#0060ff" stroke-width="3.76" opacity="0.98"/>
<circle cx="1629.989" cy="466.949" r="47.94" fill="#111622" stroke="url(#energy-gradient)" stroke-width="2.35"/>
<polygon points="1637.388,441.143 1656.819,466.012 1639.171,492.177 1608.833,483.478 1607.732,451.937" fill="#0060ff" opacity="0.34"/>
<circle cx="1629.989" cy="466.949" r="8.629" fill="#ffd700"/>
</g>
<g id="validator-4-node">
<circle cx="2188.82" cy="843.886" r="59.22" fill="#030206" stroke="#7d00ff" stroke-width="3.76" opacity="0.98"/>
<circle cx="2188.82" cy="843.886" r="47.94" fill="#111622" stroke="url(#energy-gradient)" stroke-width="2.35"/>
<polygon points="2215.65,842.949 2198.002,869.113 2167.664,860.414 2166.563,828.873 2196.22,818.079" fill="#7d00ff" opacity="0.34"/>
<circle cx="2188.82" cy="843.886" r="8.629" fill="#ffd700"/>
</g>
<g id="validator-5-node">
<circle cx="2003.02" cy="1491.845" r="59.22" fill="#030206" stroke="#00ffd4" stroke-width="3.76" opacity="0.98"/>
<circle cx="2003.02" cy="1491.845" r="47.94" fill="#111622" stroke="url(#energy-gradient)" stroke-width="2.35"/>
<polygon points="2012.202,1517.073 1981.865,1508.374 1980.764,1476.833 2010.42,1466.039 2029.85,1490.908" fill="#00ffd4" opacity="0.34"/>
<circle cx="2003.02" cy="1491.845" r="8.629" fill="#ffd700"/>
</g>
</g>
<text x="1650" y="1763.8" text-anchor="middle" font-size="62" font-weight="800" letter-spacing="0" fill="#f2f7ff" opacity="0.72">1263</text>
</g>
<text x="1650" y="360" text-anchor="middle" font-size="120" font-weight="850" letter-spacing="0" fill="#ffffff" opacity="1">SYNERGY TESTNET</text>
<text x="1650" y="530" text-anchor="middle" font-size="70" font-weight="700" letter-spacing="0" fill="#c5d9e8" opacity="1">GENESIS CERTIFICATE</text>
<text x="1650" y="1765" text-anchor="middle" font-size="46" font-weight="700" letter-spacing="0" fill="#00ffd4" opacity="1">CHAIN 1263 / MAGIC d5d5bb99 / POST-QUANTUM DAG CONSENSUS</text>
<text class="mono" x="1650" y="1905" text-anchor="middle" font-size="46" font-weight="700" letter-spacing="0" fill="#f2f7ff" opacity="1">GENESIS HASH dd9ad8cf...5e450b8</text>
<text class="mono" x="1650" y="2165" text-anchor="middle" font-size="30" font-weight="400" letter-spacing="0" fill="#5e7280" opacity="0.68">dd9ad8cfc74be1ab17a0a0fce9db65281df1b325fe5a2530130dce8935e450b8</text>
</svg>
