<svg xmlns="http://www.w3.org/2000/svg" width="3600" height="2400" viewBox="0 0 3600 2400" role="img" aria-label="Synergy Testnet genesis validator plaque">
<metadata>{&quot;art_seed&quot;:&quot;e5b9fcdcfbaf9aaba759afee722b7bae9da187a61f7dcbb1ae122cccc0f2707c&quot;,&quot;chain_id&quot;:1264,&quot;dag_topology_seed&quot;:&quot;22a0e56bc1c8dbbea6de4c22a6837566e292100f1c7558f8ec743e12d0248f89&quot;,&quot;generator_version&quot;:&quot;synergy-genesis-art-v2.0.0&quot;,&quot;genesis_hash&quot;:&quot;85b26d520e1621adaa212012dae540dcb223e0a9648666b919d64cb8c4394c75&quot;,&quot;kind&quot;:&quot;validator 2 plaque&quot;,&quot;network_magic_bytes&quot;:&quot;e312fa40&quot;,&quot;state_root&quot;:&quot;989d45295a07a0fd848235342505be89c74980fbc630b9b6fa108926bedb92c3&quot;,&quot;validator_set_hash&quot;:&quot;8b2cb9f8eb296dd1491d3ed777da3f7264dd4d0bc467556902ebe63363577dfc&quot;}</metadata>
<defs>
<style><![CDATA[text{font-family:Sora,Rajdhani,Segoe UI,Arial,sans-serif} .mono{font-family:SFMono-Regular,Consolas,Menlo,monospace}]]></style>
<radialGradient id="bg-radial" cx="50%" cy="45%" r="72%"><stop offset="0%" stop-color="#111622"/><stop offset="50%" stop-color="#05070d"/><stop offset="100%" stop-color="#030206"/></radialGradient>
<linearGradient id="energy-gradient" x1="8%" y1="12%" x2="92%" y2="88%"><stop offset="0%" stop-color="#00ff66"/><stop offset="32%" stop-color="#00ced1"/><stop offset="66%" stop-color="#0060ff"/><stop offset="100%" stop-color="#7d00ff"/></linearGradient>
<linearGradient id="core-gradient" x1="25%" y1="10%" x2="80%" y2="90%"><stop offset="0%" stop-color="#ffffff"/><stop offset="38%" stop-color="#00ffd4"/><stop offset="72%" stop-color="#00ced1"/><stop offset="100%" stop-color="#7d00ff"/></linearGradient>
<linearGradient id="gold-magenta" x1="0%" y1="0%" x2="100%" y2="100%"><stop offset="0%" stop-color="#ffd700"/><stop offset="100%" stop-color="#ff00e5"/></linearGradient>
<filter id="core-glow" x="-35%" y="-35%" width="170%" height="170%"><feGaussianBlur stdDeviation="16" result="blur"/><feColorMatrix in="blur" type="matrix" values="0 0 0 0 0 0 0 0 0 1 0 0 0 0 0.83 0 0 0 .42 0"/><feMerge><feMergeNode/><feMergeNode in="SourceGraphic"/></feMerge></filter>
<filter id="line-glow" x="-20%" y="-20%" width="140%" height="140%"><feGaussianBlur stdDeviation="5" result="blur"/><feMerge><feMergeNode in="blur"/><feMergeNode in="SourceGraphic"/></feMerge></filter>
</defs>
<rect width="100%" height="100%" fill="url(#bg-radial)"/>
<rect x="92" y="92" width="3416" height="2216" fill="#05070d" stroke="url(#energy-gradient)" stroke-width="5"/>
<rect x="140" y="140" width="3320" height="2120" fill="none" stroke="#ffd700" stroke-width="2" opacity="0.56"/>
<g id="synergy-genesis-motif">
<g opacity="0.38" fill="none">
<circle cx="920" cy="1120" r="178.6" stroke="#00ff66" stroke-width="2.66" stroke-dasharray="2 24" transform="rotate(154 920 1120)"/>
<circle cx="920" cy="1120" r="288.8" stroke="#00ced1" stroke-width="2.66" stroke-dasharray="18 30" transform="rotate(171 920 1120)"/>
<circle cx="920" cy="1120" r="395.2" stroke="#0060ff" stroke-width="2.66" stroke-dasharray="2 24" transform="rotate(188 920 1120)"/>
<circle cx="920" cy="1120" r="501.6" stroke="#7d00ff" stroke-width="2.66" stroke-dasharray="18 30" transform="rotate(205 920 1120)"/>
</g>
<g opacity="0.38" stroke="#ffd700" stroke-width="2" stroke-linecap="round">
<line x1="407.687" y1="1369.872" x2="380.364" y2="1383.198"/>
<line x1="358.66" y1="1021.021" x2="347.433" y2="1019.041"/>
<line x1="416.72" y1="852.401" x2="406.654" y2="847.049"/>
<line x1="670.128" y1="607.687" x2="656.802" y2="580.364"/>
<line x1="840.671" y1="555.547" x2="839.085" y2="544.258"/>
<line x1="1187.599" y1="616.72" x2="1192.951" y2="606.654"/>
<line x1="1330.024" y1="724.045" x2="1338.224" y2="716.126"/>
<line x1="1484.453" y1="1040.671" x2="1495.742" y2="1039.085"/>
<line x1="1481.34" y1="1218.979" x2="1492.567" y2="1220.959"/>
<line x1="1315.955" y1="1530.024" x2="1323.874" y2="1538.224"/>
<line x1="1169.872" y1="1632.313" x2="1183.198" y2="1659.636"/>
<line x1="821.021" y1="1681.34" x2="819.041" y2="1692.567"/>
<line x1="652.401" y1="1623.28" x2="647.049" y2="1633.346"/>
</g>
<path d="M 485.957 978.971 L 920 663.62 L 1354.043 978.971 L 1188.253 1489.219 L 651.747 1489.219 Z" fill="#05070d" opacity="0.16" stroke="#00ced1" stroke-width="0.76"/>
<g stroke-linecap="round" stroke-linejoin="round" fill="none" opacity="1">
<path d="M 485.957 978.971 L 920 663.62" stroke="#00ff66" stroke-width="20.52" fill="none"/>
<path d="M 485.957 978.971 L 920 663.62" stroke="#00ffd4" stroke-width="3.8" fill="none" opacity="0.5"/>
<path d="M 920 663.62 L 1354.043 978.971" stroke="#00ced1" stroke-width="20.52" fill="none"/>
<path d="M 920 663.62 L 1354.043 978.971" stroke="#00ffd4" stroke-width="3.8" fill="none" opacity="0.5"/>
<path d="M 1354.043 978.971 L 1188.253 1489.219" stroke="#0060ff" stroke-width="20.52" fill="none"/>
<path d="M 1354.043 978.971 L 1188.253 1489.219" stroke="#00ffd4" stroke-width="3.8" fill="none" opacity="0.5"/>
<path d="M 1188.253 1489.219 L 651.747 1489.219" stroke="#7d00ff" stroke-width="20.52" fill="none"/>
<path d="M 1188.253 1489.219 L 651.747 1489.219" stroke="#00ffd4" stroke-width="3.8" fill="none" opacity="0.5"/>
<path d="M 651.747 1489.219 L 485.957 978.971" stroke="#00ff66" stroke-width="20.52" fill="none"/>
<path d="M 651.747 1489.219 L 485.957 978.971" stroke="#00ffd4" stroke-width="3.8" fill="none" opacity="0.5"/>
</g>
<g stroke-linecap="round" fill="none" opacity="0.24">
<path d="M 485.957 978.971 Q 920 1032.562 1354.043 978.971" stroke="#00ced1" stroke-width="3.04"/>
<path d="M 920 663.62 Q 836.841 1092.98 651.747 1489.219" stroke="#00ced1" stroke-width="3.04"/>
<path d="M 485.957 978.971 Q 868.605 1190.739 1188.253 1489.219" stroke="#00ced1" stroke-width="3.04"/>
</g>
<g opacity="0.22" stroke="#7d00ff" stroke-width="1.14" fill="none">
<line x1="825.584" y1="1141.798" x2="747.175" y2="1024.202"/>
<line x1="844.09" y1="1059.773" x2="887.144" y2="925.151"/>
<line x1="919.758" y1="1023.1" x2="1051.854" y2="972.825"/>
<line x1="995.609" y1="1059.395" x2="1117.275" y2="1131.325"/>
<line x1="1014.524" y1="1141.327" x2="1034.144" y2="1281.297"/>
<line x1="962.261" y1="1207.199" x2="865.061" y2="1309.809"/>
<line x1="878.174" y1="1207.408" x2="737.347" y2="1195.391"/>
</g>
<g id="genesis-core" filter="url(#core-glow)">
<polygon points="946.499,1234.781 819.026,1180.671 831.095,1042.716 966.028,1011.565 1037.352,1130.267" fill="#0a0e18" stroke="url(#energy-gradient)" stroke-width="4.94" opacity="0.94"/>
<polygon points="839.326,1095.336 901.023,1037.802 981.697,1062.467 1000.674,1144.664 938.977,1202.198 858.303,1177.533" fill="none" stroke="#00ffd4" stroke-width="3.04" opacity="0.82"/>
<polygon points="904.613,1053.353 985.411,1139.998 869.975,1166.649" fill="#00ffd4" opacity="0.18" stroke="#ffffff" stroke-width="1.14"/>
<polygon points="935.387,1186.647 854.589,1100.002 970.025,1073.351" fill="#7d00ff" opacity="0.2" stroke="#00ced1" stroke-width="1.14"/>
<polygon points="881.974,1096.238 943.762,1081.974 958.026,1143.762 896.238,1158.026" fill="url(#core-gradient)" stroke="#ffffff" stroke-width="1.52"/>
<circle cx="920" cy="1120" r="10.64" fill="#ffffff"/>
</g>
<g id="genesis-validators">
<g id="validator-1-node">
<circle cx="485.957" cy="978.971" r="46.36" fill="#030206" stroke="#00ff66" stroke-width="3.04" opacity="0.98"/>
<circle cx="485.957" cy="978.971" r="37.24" fill="#111622" stroke="url(#energy-gradient)" stroke-width="1.9"/>
<polygon points="469.085,966.713 492.401,959.137 506.811,978.971 492.401,998.805 469.085,991.229" fill="#00ff66" opacity="0.34"/>
<circle cx="485.957" cy="978.971" r="6.703" fill="#ffd700"/>
</g>
<g id="validator-2-node">
<circle cx="920" cy="663.62" r="46.36" fill="#030206" stroke="#00ced1" stroke-width="3.04" opacity="0.98"/>
<circle cx="920" cy="663.62" r="37.24" fill="#111622" stroke="url(#energy-gradient)" stroke-width="1.9"/>
<polygon points="926.444,643.786 940.854,663.62 926.444,683.454 903.128,675.878 903.128,651.362" fill="#00ced1" opacity="0.34"/>
<circle cx="920" cy="663.62" r="6.703" fill="#ffd700"/>
</g>
<g id="validator-3-node">
<circle cx="1354.043" cy="978.971" r="46.36" fill="#030206" stroke="#0060ff" stroke-width="3.04" opacity="0.98"/>
<circle cx="1354.043" cy="978.971" r="37.24" fill="#111622" stroke="url(#energy-gradient)" stroke-width="1.9"/>
<polygon points="1374.898,978.971 1360.488,998.805 1337.172,991.229 1337.172,966.713 1360.488,959.137" fill="#0060ff" opacity="0.34"/>
<circle cx="1354.043" cy="978.971" r="6.703" fill="#ffd700"/>
</g>
<g id="validator-4-node">
<circle cx="1188.253" cy="1489.219" r="46.36" fill="#030206" stroke="#7d00ff" stroke-width="3.04" opacity="0.98"/>
<circle cx="1188.253" cy="1489.219" r="37.24" fill="#111622" stroke="url(#energy-gradient)" stroke-width="1.9"/>
<polygon points="1194.698,1509.053 1171.382,1501.477 1171.382,1476.961 1194.698,1469.385 1209.108,1489.219" fill="#7d00ff" opacity="0.34"/>
<circle cx="1188.253" cy="1489.219" r="6.703" fill="#ffd700"/>
</g>
<g id="validator-5-node">
<circle cx="651.747" cy="1489.219" r="46.36" fill="#030206" stroke="#00ffd4" stroke-width="3.04" opacity="0.98"/>
<circle cx="651.747" cy="1489.219" r="37.24" fill="#111622" stroke="url(#energy-gradient)" stroke-width="1.9"/>
<polygon points="634.875,1501.477 634.875,1476.961 658.191,1469.385 672.601,1489.219 658.191,1509.053" fill="#00ffd4" opacity="0.34"/>
<circle cx="651.747" cy="1489.219" r="6.703" fill="#ffd700"/>
</g>
</g>
<text x="920" y="1705.2" text-anchor="middle" font-size="50" font-weight="800" letter-spacing="0" fill="#f2f7ff" opacity="0.72">1264</text>
</g>
<text x="2180" y="470" text-anchor="start" font-size="84" font-weight="850" letter-spacing="0" fill="#ffffff" opacity="1">SYNERGY GENESIS VALIDATOR 2</text>
<text x="2180" y="610" text-anchor="start" font-size="46" font-weight="700" letter-spacing="0" fill="#c5d9e8" opacity="1">GENESIS VALIDATOR PLAQUE</text>
<text x="2180" y="850" text-anchor="start" font-size="34" font-weight="750" letter-spacing="0" fill="#5e7280" opacity="1">VALIDATOR ADDRESS</text>
<text class="mono" x="2180" y="920" text-anchor="start" font-size="46" font-weight="650" letter-spacing="0" fill="#f2f7ff" opacity="1">synv11s4wc6l4kg4jr0k5meg42cyzxa03cf863srt</text>
<text x="2180" y="1060" text-anchor="start" font-size="34" font-weight="750" letter-spacing="0" fill="#5e7280" opacity="1">VALIDATOR FINGERPRINT</text>
<text class="mono" x="2180" y="1130" text-anchor="start" font-size="46" font-weight="650" letter-spacing="0" fill="#f2f7ff" opacity="1">38aec149</text>
<text x="2180" y="1270" text-anchor="start" font-size="34" font-weight="750" letter-spacing="0" fill="#5e7280" opacity="1">CONSENSUS KEY</text>
<text class="mono" x="2180" y="1340" text-anchor="start" font-size="46" font-weight="650" letter-spacing="0" fill="#f2f7ff" opacity="1">dc2865870e</text>
<text x="2180" y="1480" text-anchor="start" font-size="34" font-weight="750" letter-spacing="0" fill="#5e7280" opacity="1">CHAIN</text>
<text class="mono" x="2180" y="1550" text-anchor="start" font-size="46" font-weight="650" letter-spacing="0" fill="#f2f7ff" opacity="1">1264</text>
<text x="2180" y="1690" text-anchor="start" font-size="34" font-weight="750" letter-spacing="0" fill="#5e7280" opacity="1">MAGIC</text>
<text class="mono" x="2180" y="1760" text-anchor="start" font-size="46" font-weight="650" letter-spacing="0" fill="#f2f7ff" opacity="1">e312fa40</text>
<text x="2180" y="1900" text-anchor="start" font-size="34" font-weight="750" letter-spacing="0" fill="#5e7280" opacity="1">GENESIS HASH</text>
<text class="mono" x="2180" y="1970" text-anchor="start" font-size="46" font-weight="650" letter-spacing="0" fill="#f2f7ff" opacity="1">85b26d52...c4394c75</text>
<text x="2180" y="2140" text-anchor="start" font-size="34" font-weight="700" letter-spacing="0" fill="#00ffd4" opacity="1">POST-QUANTUM DAG CONSENSUS / SYNERGY TESTNET</text>
</svg>
